G04 MADE WITH FRITZING*
G04 WWW.FRITZING.ORG*
G04 DOUBLE SIDED*
G04 HOLES PLATED*
G04 CONTOUR ON CENTER OF CONTOUR VECTOR*
%ASAXBY*%
%FSLAX23Y23*%
%MOIN*%
%OFA0B0*%
%SFA1.0B1.0*%
%ADD10C,0.140000*%
%ADD11C,0.066195*%
%ADD12C,0.066222*%
%ADD13C,0.052306*%
%ADD14C,0.052333*%
%ADD15C,0.075000*%
%ADD16C,0.078000*%
%ADD17R,0.075000X0.075000*%
%ADD18R,0.078000X0.078000*%
%ADD19C,0.024000*%
%LNCOPPER0*%
G90*
G70*
G54D10*
X2976Y947D03*
X2976Y1187D03*
X2786Y1067D03*
G54D11*
X1184Y233D03*
X1084Y233D03*
X984Y233D03*
X884Y233D03*
X784Y233D03*
G54D12*
X1644Y2133D03*
X1744Y2133D03*
X1844Y2133D03*
X1944Y2133D03*
X2044Y2133D03*
X2144Y2133D03*
X2244Y2133D03*
X2344Y2133D03*
X2444Y2133D03*
X2544Y2133D03*
X784Y2133D03*
X884Y2133D03*
X984Y2133D03*
X1084Y2133D03*
X1184Y2133D03*
X1284Y2133D03*
X1384Y2133D03*
X1484Y2133D03*
G54D11*
X2084Y233D03*
X2184Y233D03*
X1984Y233D03*
X1884Y233D03*
X1784Y233D03*
X1684Y233D03*
X1584Y233D03*
X1484Y233D03*
X1284Y233D03*
G54D13*
X1184Y233D03*
X1084Y233D03*
X984Y233D03*
X884Y233D03*
X784Y233D03*
G54D14*
X1644Y2133D03*
X1744Y2133D03*
X1844Y2133D03*
X1944Y2133D03*
X2044Y2133D03*
X2144Y2133D03*
X2244Y2133D03*
X2344Y2133D03*
X2444Y2133D03*
X2544Y2133D03*
X784Y2133D03*
X884Y2133D03*
X984Y2133D03*
X1084Y2133D03*
X1184Y2133D03*
X1284Y2133D03*
X1384Y2133D03*
X1484Y2133D03*
G54D13*
X2084Y233D03*
X2184Y233D03*
X1984Y233D03*
X1884Y233D03*
X1784Y233D03*
X1684Y233D03*
X1584Y233D03*
X1484Y233D03*
X1284Y233D03*
G54D15*
X1644Y1233D03*
X1344Y1233D03*
X1644Y1333D03*
X1344Y1333D03*
X1644Y1433D03*
X1344Y1433D03*
X1644Y1533D03*
X1344Y1533D03*
X1644Y1633D03*
X1344Y1633D03*
X1644Y1733D03*
X1344Y1733D03*
X1644Y1833D03*
X1344Y1833D03*
X1644Y1933D03*
X1344Y1933D03*
X1044Y833D03*
X1044Y433D03*
X1344Y833D03*
X1344Y433D03*
X1644Y833D03*
X1644Y433D03*
X844Y833D03*
X844Y433D03*
X744Y933D03*
X744Y633D03*
X1244Y933D03*
X1244Y633D03*
X1544Y933D03*
X1544Y633D03*
X944Y933D03*
X944Y633D03*
G54D16*
X1144Y1533D03*
X1144Y1633D03*
X2044Y1533D03*
X2044Y1633D03*
X44Y1033D03*
X44Y1133D03*
X44Y1233D03*
G54D15*
X1844Y1933D03*
X2244Y1933D03*
X1744Y833D03*
X2044Y833D03*
X1444Y1533D03*
X1844Y1533D03*
G54D17*
X1644Y1233D03*
G54D18*
X1144Y1533D03*
X2044Y1533D03*
X44Y1033D03*
G54D19*
X2727Y1049D02*
X2072Y842D01*
D02*
X1444Y1533D02*
X1373Y1533D01*
D02*
X1616Y1533D02*
X1444Y1533D01*
D02*
X1673Y1533D02*
X1816Y1533D01*
G04 End of Copper0*
M02*