; NON-PLATED HOLES START AT T1
; THROUGH (PLATED) HOLES START AT T100
M48
INCH
T1C0.052306
T2C0.052333
T100C0.038444
T101C0.038000
T102C0.038417
T103C0.035000
T104C0.100000
%
T1
X008844Y002333
X021844Y002333
X011844Y002333
X014844Y002333
X016844Y002333
X020844Y002333
X009844Y002333
X012844Y002333
X019844Y002333
X017844Y002333
X015844Y002333
X018844Y002333
X007844Y002333
X010844Y002333
T2
X020444Y021333
X025444Y021333
X014844Y021333
X022444Y021333
X009844Y021333
X024444Y021333
X017444Y021333
X008844Y021333
X023444Y021333
X021444Y021333
X016444Y021333
X011844Y021333
X012844Y021333
X018444Y021333
X019444Y021333
X013844Y021333
X010844Y021333
X007844Y021333
T100
X020444Y021333
X025444Y021333
X014844Y021333
X022444Y021333
X009844Y021333
X024444Y021333
X017444Y021333
X008844Y021333
X023444Y021333
X021444Y021333
X016444Y021333
X011844Y021333
X012844Y021333
X018444Y021333
X019444Y021333
X013844Y021333
X010844Y021333
X007844Y021333
T101
X000444Y011333
X020444Y016333
X011444Y015333
X020444Y015333
X011444Y016333
X000444Y012333
X000444Y010333
T102
X008844Y002333
X021844Y002333
X011844Y002333
X014844Y002333
X016844Y002333
X020844Y002333
X009844Y002333
X012844Y002333
X019844Y002333
X017844Y002333
X015844Y002333
X018844Y002333
X007844Y002333
X010844Y002333
T103
X018444Y019333
X016444Y014333
X013444Y018333
X013444Y016333
X015444Y006333
X018444Y015333
X016444Y012333
X007444Y009333
X016444Y019333
X013444Y004333
X008444Y008333
X020444Y008333
X013444Y008333
X016444Y016333
X010444Y004333
X008444Y004333
X009444Y009333
X016444Y013333
X016444Y008333
X016444Y004333
X012444Y009333
X009444Y006333
X013444Y017333
X013444Y015333
X016444Y015333
X013444Y019333
X017444Y008333
X015444Y009333
X012444Y006333
X016444Y018333
X013444Y012333
X010444Y008333
X013444Y013333
X016444Y017333
X007444Y006333
X013444Y014333
X014444Y015333
X022444Y019333
T104
X029756Y009470
X027856Y010670
X029756Y011870
T00
M30
